<?xml version="1.0" encoding="iso-8859-1"?>
<!-- Generator: Adobe Illustrator 21.0.0, SVG Export Plug-In . SVG Version: 6.00 Build 0)  -->
<svg version="1.1" id="Capa_1" xmlns="http://www.w3.org/2000/svg" xmlns:xlink="http://www.w3.org/1999/xlink" x="0px" y="0px"
	 viewBox="0 0 512 512" style="enable-background:new 0 0 512 512;" xml:space="preserve">
<g>
	<circle style="fill:#4A7AFF;" cx="256" cy="256" r="256"/>
	<circle style="fill:#4A7AFF;" cx="256" cy="256" r="256"/>
</g>
<path style="fill:#2864F0;" d="M511.965,258.729l-98.012-98.012l-9.742,29.933l-76.73-76.73l-116.553,8.633L98.047,369.956
	L239.55,511.459C244.99,511.804,250.472,512,256,512C396.472,512,510.499,398.855,511.965,258.729z"/>
<polygon style="fill:#FFFFFF;" points="413.953,366.109 98.047,366.109 98.047,122.553 193.553,122.553 235.644,160.718 
	413.953,160.718 "/>
<rect x="255.57" y="160.72" style="fill:#F2F6FC;" width="158.38" height="205.39"/>
<path style="fill:#FFD400;" d="M382.648,384.87H129.316c-22.16,0-40.152-17.911-40.253-40.071L88.5,220.879h133.626l44.801-41.401
	H423.5l-0.599,165.284C422.82,366.936,404.822,384.87,382.648,384.87z"/>
<path style="fill:#FFB000;" d="M266.927,179.478l-11.356,10.494V384.87h127.076c22.174,0,40.173-17.933,40.253-40.107l0.599-165.284
	H266.927V179.478z"/>
<path style="fill:#FF432E;" d="M363.105,223.079l-23.419,23.419v-90.973c0-42.539-34.609-77.147-77.147-77.147
	c-30.75,0-57.352,18.085-69.736,44.177h0.75l39.316,35.647v-2.677c0-16.36,13.31-29.67,29.671-29.67s29.67,13.31,29.67,29.67v90.973
	l-23.418-23.419L235.22,256.65l80.729,80.728l80.728-80.728L363.105,223.079z"/>
<path style="fill:#DB0404;" d="M396.676,256.65l-33.571-33.571l-23.419,23.419v-90.973c0-42.539-34.609-77.147-77.147-77.147
	c-2.35,0-4.671,0.118-6.968,0.325v47.987c2.236-0.541,4.568-0.834,6.968-0.834c16.361,0,29.67,13.31,29.67,29.67v90.973
	l-23.418-23.419l-13.22,13.22v40.703l60.377,60.377L396.676,256.65z"/>
<g>
</g>
<g>
</g>
<g>
</g>
<g>
</g>
<g>
</g>
<g>
</g>
<g>
</g>
<g>
</g>
<g>
</g>
<g>
</g>
<g>
</g>
<g>
</g>
<g>
</g>
<g>
</g>
<g>
</g>
</svg>
