<?xml version="1.0" encoding="iso-8859-1"?>
<!-- Generator: Adobe Illustrator 19.0.0, SVG Export Plug-In . SVG Version: 6.00 Build 0)  -->
<svg version="1.1" id="Capa_1" xmlns="http://www.w3.org/2000/svg" xmlns:xlink="http://www.w3.org/1999/xlink" x="0px" y="0px"
	 viewBox="0 0 512 512" style="enable-background:new 0 0 512 512;" xml:space="preserve">
<g>
	<g>
		<path d="M510.239,249.601c-7.126-11.987-14.967-23.525-23.302-34.296c-2.541-3.283-7.263-3.884-10.547-1.343
			c-3.283,2.542-3.884,7.263-1.343,10.547c7.665,9.903,14.895,20.493,21.503,31.495c-27.411,45.654-63.294,81.367-106.666,106.152
			c-15.356,8.776-31.475,15.997-48.093,21.594c41.071-27.672,68.139-74.607,68.139-127.746c0-53.109-27.037-100.022-68.069-127.7
			c37.295,12.61,72.111,33.427,101.995,61.702c3.017,2.854,7.775,2.721,10.628-0.294c2.854-3.016,2.722-7.775-0.294-10.628
			c-64.586-61.11-151.046-89.276-237.217-77.28c-42.954,5.98-83.23,21.376-119.709,45.757
			c-38.362,25.641-70.495,59.973-95.504,102.04c-2.347,3.948-2.347,8.855,0,12.805c28.851,48.53,66.834,86.482,112.896,112.805
			c43.155,24.662,92.031,37.697,141.344,37.697s98.189-13.035,141.344-37.697c46.062-26.322,84.045-64.275,112.895-112.804
			C512.587,258.457,512.587,253.551,510.239,249.601z M117.105,256.003c0-5.391,0.313-10.824,0.928-16.147
			c0.477-4.125-2.48-7.855-6.604-8.332c-4.131-0.485-7.855,2.48-8.332,6.604c-0.683,5.895-1.027,11.909-1.027,17.876
			c0,53.14,27.068,100.074,68.139,127.746c-16.617-5.597-32.736-12.818-48.092-21.594c-43.375-24.785-79.255-60.493-106.666-106.151
			c23.742-39.54,54.075-71.816,90.17-95.941c20.453-13.671,42.168-24.334,64.911-31.958c-23.211,15.5-42.282,37.256-54.389,63.517
			c-1.738,3.77-0.091,8.237,3.68,9.975c3.772,1.737,8.236,0.091,9.975-3.68c22.633-49.089,72.171-80.808,126.203-80.808
			c76.586,0,138.895,62.308,138.895,138.895s-62.308,138.895-138.895,138.895S117.105,332.589,117.105,256.003z"/>
	</g>
</g>
<g>
	<g>
		<path d="M315.706,228.368c0-19.26-15.668-34.928-34.928-34.928c-10.315,0-19.597,4.498-25.996,11.631
			c-0.573-0.017-1.145-0.045-1.723-0.045c-31.304,0-56.77,25.467-56.77,56.77s25.467,56.77,56.77,56.77s56.77-25.467,56.77-56.77
			c0-4.192-0.462-8.278-1.331-12.212C313.014,243.697,315.706,236.343,315.706,228.368z M253.06,303.53
			c-23.013,0-41.734-18.723-41.734-41.734c0-20.867,15.394-38.205,35.42-41.257c-0.579,2.519-0.896,5.137-0.896,7.83
			c0,19.259,15.668,34.928,34.928,34.928c4.964,0,9.685-1.048,13.964-2.922c0.017,0.474,0.051,0.943,0.051,1.421
			C294.795,284.808,276.073,303.53,253.06,303.53z M280.778,248.26c-10.969,0-19.892-8.923-19.892-19.892
			c0-10.968,8.924-19.892,19.892-19.892c10.968,0,19.892,8.923,19.892,19.892C300.671,239.336,291.747,248.26,280.778,248.26z"/>
	</g>
</g>
<g>
</g>
<g>
</g>
<g>
</g>
<g>
</g>
<g>
</g>
<g>
</g>
<g>
</g>
<g>
</g>
<g>
</g>
<g>
</g>
<g>
</g>
<g>
</g>
<g>
</g>
<g>
</g>
<g>
</g>
</svg>
