<?xml version="1.0" encoding="iso-8859-1"?>
<!-- Generator: Adobe Illustrator 19.0.0, SVG Export Plug-In . SVG Version: 6.00 Build 0)  -->
<svg version="1.1" id="Capa_1" xmlns="http://www.w3.org/2000/svg" xmlns:xlink="http://www.w3.org/1999/xlink" x="0px" y="0px"
	 viewBox="0 0 512 512" style="enable-background:new 0 0 512 512;" xml:space="preserve">
<path style="fill:#E1E6E9;" d="M8.222,258.565c116.385,195.767,379.169,195.767,495.554,0c0.935-1.574,0.935-3.548,0-5.121
	c-116.385-195.767-379.169-195.767-495.554,0C7.287,255.016,7.287,256.991,8.222,258.565z"/>
<path style="fill:#D2D6D8;" d="M503.779,258.56c-63.241,106.373-169.694,154.949-272.409,145.717
	c86.326-7.738,170.005-56.314,223.151-145.717c0.942-1.564,0.942-3.548,0-5.112c-53.147-89.403-136.826-137.979-223.151-145.717
	c102.715-9.232,209.168,39.344,272.409,145.717C504.711,255.011,504.711,256.996,503.779,258.56z"/>
<circle style="fill:#55D1E7;" cx="255.999" cy="256" r="146.409"/>
<path style="fill:#45C1CE;" d="M402.408,256.004c0,80.863-65.546,146.409-146.409,146.409c-8.179,0-16.209-0.672-24.027-1.965
	c69.435-11.457,122.391-71.761,122.391-144.444S301.407,123.017,231.972,111.56c7.819-1.293,15.848-1.965,24.027-1.965
	C336.862,109.595,402.408,175.141,402.408,256.004z"/>
<path d="M510.239,249.601c-7.126-11.987-14.967-23.525-23.302-34.296c-2.541-3.283-7.263-3.884-10.547-1.343
	c-3.283,2.542-3.884,7.263-1.343,10.547c7.665,9.903,14.895,20.493,21.503,31.495c-27.411,45.654-63.294,81.367-106.666,106.152
	c-15.356,8.776-31.475,15.997-48.092,21.594c41.071-27.672,68.139-74.607,68.139-127.746c0-53.109-27.037-100.022-68.069-127.7
	c37.295,12.61,72.111,33.427,101.995,61.702c3.017,2.854,7.775,2.721,10.628-0.294c2.854-3.016,2.722-7.775-0.294-10.628
	c-64.586-61.11-151.046-89.276-237.217-77.28c-42.954,5.98-83.23,21.376-119.709,45.757c-38.362,25.641-70.495,59.973-95.504,102.04
	c-2.347,3.948-2.347,8.855,0,12.804c28.851,48.53,66.834,86.482,112.896,112.805c43.155,24.662,92.031,37.697,141.344,37.697
	s98.189-13.035,141.344-37.697c46.062-26.322,84.045-64.275,112.895-112.804C512.587,258.457,512.587,253.551,510.239,249.601z
	 M15.451,256.004c23.743-39.54,54.075-71.816,90.17-95.941c20.453-13.671,42.168-24.334,64.911-31.958
	c-23.211,15.5-42.282,37.256-54.389,63.517c-1.738,3.77-0.091,8.237,3.68,9.975c3.772,1.737,8.236,0.091,9.975-3.68
	c22.633-49.089,72.171-80.808,126.203-80.808c76.586,0,138.895,62.308,138.895,138.895s-62.308,138.895-138.895,138.895
	s-138.895-62.308-138.895-138.895c0-5.391,0.313-10.824,0.928-16.147c0.477-4.125-2.48-7.855-6.604-8.332
	c-4.131-0.485-7.855,2.48-8.332,6.604c-0.683,5.895-1.027,11.909-1.027,17.876c0,53.14,27.068,100.074,68.139,127.746
	c-16.617-5.597-32.736-12.819-48.092-21.594C78.741,337.369,42.862,301.661,15.451,256.004z"/>
<circle style="fill:#636A75;" cx="253.062" cy="261.793" r="49.247"/>
<path style="fill:#525760;" d="M302.318,261.795c0,27.205-22.052,49.257-49.257,49.257c-4.31,0-8.49-0.551-12.47-1.594
	c21.17-5.523,36.788-24.769,36.788-47.663s-15.617-42.14-36.788-47.663c3.979-1.042,8.159-1.594,12.47-1.594
	C280.265,212.538,302.318,234.591,302.318,261.795z"/>
<circle style="fill:#E1E6E9;" cx="280.778" cy="228.364" r="27.41"/>
<path style="fill:#D2D6D8;" d="M308.192,228.368c0,15.14-12.273,27.413-27.413,27.413c-2.399,0-4.725-0.307-6.94-0.887
	c11.782-3.073,20.474-13.785,20.474-26.526s-8.692-23.452-20.474-26.526c2.214-0.58,4.541-0.887,6.94-0.887
	C295.918,200.956,308.192,213.228,308.192,228.368z"/>
<path d="M315.706,228.368c0-19.26-15.668-34.928-34.928-34.928c-10.315,0-19.597,4.498-25.996,11.631
	c-0.573-0.017-1.145-0.045-1.723-0.045c-31.304,0-56.77,25.467-56.77,56.77s25.467,56.77,56.77,56.77s56.77-25.467,56.77-56.77
	c0-4.192-0.462-8.278-1.331-12.212C313.014,243.697,315.706,236.343,315.706,228.368z M280.778,208.475
	c10.968,0,19.892,8.923,19.892,19.892c0,10.968-8.923,19.892-19.892,19.892s-19.892-8.923-19.892-19.892
	C260.886,217.4,269.81,208.475,280.778,208.475z M253.06,303.53c-23.013,0-41.734-18.723-41.734-41.734
	c0-20.867,15.394-38.205,35.42-41.257c-0.579,2.519-0.896,5.137-0.896,7.83c0,19.259,15.668,34.928,34.928,34.928
	c4.964,0,9.685-1.048,13.964-2.922c0.017,0.474,0.051,0.943,0.051,1.421C294.795,284.808,276.073,303.53,253.06,303.53z"/>
<g>
</g>
<g>
</g>
<g>
</g>
<g>
</g>
<g>
</g>
<g>
</g>
<g>
</g>
<g>
</g>
<g>
</g>
<g>
</g>
<g>
</g>
<g>
</g>
<g>
</g>
<g>
</g>
<g>
</g>
</svg>
