<svg id="Capa_1" enable-background="new 0 0 512 512" height="512" viewBox="0 0 512 512" width="512" xmlns="http://www.w3.org/2000/svg"><g><g><g><g><g><g><g><g><g><g><g><g><g><g><g><g><g><g><g><g><g><g><g><g><circle cx="256" cy="256" fill="#606aea" r="256"/></g></g></g></g></g></g></g></g></g></g></g></g></g></g></g></g></g></g></g></g></g></g></g><path d="m512 256c0-9.403-.507-18.688-1.495-27.829l-129.672-129.671-288.857 273.101 139.212 139.212c8.165.785 16.441 1.187 24.812 1.187 141.385 0 256-114.615 256-256z" fill="#4855b7"/><g><g><path d="m91.976 196.833 164.024-119.833 164.024 119.833-164.024 174.768z" fill="#ffce00"/></g></g><g><g><path d="m420.024 196.833-164.024-119.833v.01 294.575.016z" fill="#fdba12"/></g></g><g><path d="m131.166 98.5h249.667v246.089h-249.667z" fill="#fff"/></g><g><path d="m256 98.5h124.833v246.089h-124.833z" fill="#e9edf5"/></g><g><path d="m282.567 157.12c-18.921.002-24.842 9.591-26.567 14.021-1.725-4.431-7.646-14.019-26.567-14.021-38.887-.004-36.031 50.783-78.87 25.365 0 0 5.997 40.269 46.05 41.697 42.277 1.507 56.388-18.327 59.387-23.617 2.999 5.29 17.11 25.124 59.387 23.617 40.053-1.428 46.05-41.697 46.05-41.697-42.839 25.418-39.983-25.368-78.87-25.365z" fill="#555a66"/></g><g><path d="m282.567 157.12c-18.921.002-24.842 9.591-26.567 14.021-.004-.011.004.011 0 0v29.424c.004-.007-.004.007 0 0 2.999 5.29 17.11 25.124 59.387 23.617 40.053-1.428 46.05-41.697 46.05-41.697-42.839 25.418-39.983-25.368-78.87-25.365z" fill="#333940"/></g><g><g><path d="m420.024 371.601h-328.048v-174.768l164.024 108.155 164.024-108.155z" fill="#fe6a16"/></g></g><g><g><path d="m420.024 196.833-164.024 108.155v-.009 66.622h164.024z" fill="#f24500"/></g></g></g></svg>