<svg id="Capa_1" enable-background="new 0 0 512 512" height="512" viewBox="0 0 512 512" width="512" xmlns="http://www.w3.org/2000/svg"><circle cx="256" cy="256" fill="#56696e" r="256"/><path d="m256 0v512c141.385 0 256-114.615 256-256s-114.615-256-256-256z" fill="#3f4a4a"/><path d="m387.093 116.975h-193.291v207.31h-42.987c-25.569 0-46.371 20.802-46.371 46.37s20.802 46.37 46.371 46.37h27.549c25.055 0 45.438-20.383 45.438-45.438v-162.822h133.291v76.546h-42.525c-25.568 0-46.37 20.802-46.37 46.37s20.802 46.37 46.37 46.37h27.549c25.055 0 45.438-20.383 45.438-45.438z" fill="#fff587"/><path d="m387.093 116.975h-131.093v91.79h101.093v76.546h-42.525c-25.568 0-46.37 20.802-46.37 46.37s20.802 46.37 46.37 46.37h27.549c25.055 0 45.438-20.383 45.438-45.438z" fill="#ffcf2e"/></svg>