<svg id="Capa_1" enable-background="new 0 0 512 512" height="512" viewBox="0 0 512 512" width="512" xmlns="http://www.w3.org/2000/svg"><g><g><g><g><g><g><g><g><g><circle cx="256" cy="256" fill="#ffce00" r="256"/></g></g></g></g></g></g></g></g><path d="m512 256c0-3.627-.076-7.236-.225-10.827l-160.484-160.484-206.604 191.785 95.265 95.265-79.259 55.553 84.482 84.482c3.59.149 7.198.225 10.824.225 141.386.001 256.001-114.614 256.001-255.999z" fill="#ffa300"/><g><g><path d="m334.84 435h-157.68c-11.846 0-21.45-9.603-21.45-21.45v-315.1c0-11.846 9.603-21.45 21.45-21.45h157.68c11.846 0 21.45 9.603 21.45 21.45v315.1c0 11.847-9.604 21.45-21.45 21.45z" fill="#555a66"/></g></g><g><g><path d="m334.84 77h-78.84v358h78.84c11.846 0 21.449-9.603 21.449-21.45v-315.1c.001-11.847-9.602-21.45-21.449-21.45z" fill="#333940"/></g></g><g><g><path d="m168 113.444h176v285.112h-176z" fill="#fff"/></g></g><g><g><path d="m256 113.444h88v285.112h-88z" fill="#e9edf5"/></g></g><g><path d="m290.908 198.8c-24.861.002-32.641 12.617-34.908 18.438-2.267-5.821-10.047-18.436-34.908-18.438-51.094-.005-47.342 66.725-103.63 33.327 0 0 7.88 52.911 60.507 54.787 55.549 1.98 74.09-24.091 78.03-31.042 3.941 6.95 22.481 33.022 78.03 31.042 52.627-1.876 60.507-54.787 60.507-54.787-56.287 33.397-52.534-33.332-103.628-33.327z" fill="#b46e5a"/></g><g><path d="m256 255.872c3.941 6.95 22.481 33.022 78.03 31.042 52.627-1.876 60.507-54.787 60.507-54.787-56.288 33.397-52.535-33.332-103.63-33.327-24.861.002-32.641 12.617-34.908 18.438v38.634z" fill="#915041"/></g></g></svg>